<svg width="83.968750" height="34.356445" viewBox="0 0 83.9688 34.3564" fill="none" xmlns="http://www.w3.org/2000/svg" xmlns:xlink="http://www.w3.org/1999/xlink">
	<desc>
			Created with Pixso.
	</desc>
	<defs/>
	<path id="Vector" d="M3.18 17.24L0 0.25C-0.01 0.22 -0.01 0.19 0 0.15C0 0.12 0.02 0.09 0.04 0.07C0.06 0.04 0.09 0.02 0.12 0.01C0.15 0 0.18 -0.01 0.22 0L5.28 0C5.34 -0.01 5.4 0.01 5.45 0.05C5.5 0.09 5.53 0.15 5.54 0.21L7.21 11.66L8.06 11.66L9.74 0.21C9.74 0.15 9.77 0.09 9.82 0.05C9.87 0.01 9.93 -0.01 9.99 0L15.05 0C15.09 -0.01 15.12 0 15.15 0.01C15.18 0.02 15.21 0.04 15.23 0.07C15.25 0.09 15.27 0.12 15.27 0.15C15.28 0.19 15.28 0.22 15.27 0.25L12.48 17.24L15.27 34.09C15.28 34.12 15.28 34.16 15.27 34.19C15.27 34.22 15.25 34.25 15.23 34.28C15.21 34.31 15.18 34.33 15.15 34.34C15.12 34.35 15.09 34.35 15.05 34.35L10 34.35C9.93 34.35 9.87 34.34 9.82 34.29C9.78 34.25 9.75 34.2 9.74 34.14L8.07 22.68L7.21 22.68L5.54 34.14C5.54 34.2 5.5 34.25 5.46 34.29C5.41 34.33 5.35 34.35 5.28 34.35L0.22 34.35C0.19 34.35 0.16 34.35 0.13 34.34C0.1 34.32 0.07 34.3 0.05 34.28C0.03 34.25 0.01 34.22 0.01 34.19C0 34.16 0 34.12 0.01 34.09L3.18 17.24Z" fill="#49D0FF" fill-opacity="1.000000" fill-rule="evenodd"/>
	<path id="Vector" d="M16.66 0.21C16.66 0.18 16.67 0.15 16.68 0.13C16.69 0.1 16.7 0.08 16.72 0.06C16.74 0.04 16.77 0.02 16.79 0.01C16.82 0 16.85 -0.01 16.88 0L22.03 0C22.05 0 22.08 0 22.11 0.01C22.14 0.02 22.16 0.04 22.18 0.06C22.2 0.08 22.22 0.1 22.23 0.13C22.24 0.15 22.24 0.18 22.24 0.21L23.57 19.3L24.42 19.3L25.55 0.21C25.55 0.04 25.63 0 25.76 0L29.62 0C29.75 0 29.84 0.04 29.84 0.21L30.95 19.3L31.81 19.3L33.14 0.21C33.14 0.18 33.14 0.15 33.15 0.13C33.16 0.1 33.18 0.08 33.2 0.05C33.22 0.03 33.24 0.02 33.27 0.01C33.29 0 33.32 -0.01 33.35 0L38.49 0C38.52 -0.01 38.55 0 38.58 0.01C38.6 0.02 38.63 0.03 38.65 0.05C38.67 0.08 38.68 0.1 38.7 0.13C38.71 0.15 38.71 0.18 38.71 0.21L36.35 34.09C36.35 34.12 36.35 34.15 36.34 34.18C36.33 34.2 36.31 34.23 36.29 34.25C36.27 34.27 36.25 34.28 36.22 34.29C36.19 34.3 36.16 34.31 36.14 34.31L29.14 34.31C29.02 34.31 28.93 34.26 28.93 34.09L28.12 20.58L27.26 20.58L26.45 34.09C26.45 34.26 26.36 34.31 26.23 34.31L19.24 34.31C19.21 34.31 19.18 34.3 19.15 34.29C19.13 34.28 19.1 34.27 19.08 34.25C19.06 34.23 19.05 34.2 19.04 34.18C19.03 34.15 19.02 34.12 19.02 34.09L16.66 0.21Z" fill="#FFFFFF" fill-opacity="1.000000" fill-rule="nonzero"/>
	<path id="Vector" d="M45.9 19.72L45.9 29.16L51.26 29.16C51.29 29.16 51.32 29.16 51.34 29.17C51.37 29.18 51.39 29.2 51.41 29.22C51.43 29.24 51.45 29.26 51.46 29.29C51.47 29.32 51.47 29.35 51.47 29.37L51.47 34.09C51.47 34.12 51.47 34.15 51.46 34.18C51.45 34.2 51.43 34.23 51.41 34.25C51.39 34.27 51.37 34.28 51.34 34.29C51.32 34.3 51.29 34.31 51.26 34.31L40.54 34.31C40.51 34.31 40.48 34.3 40.45 34.29C40.42 34.28 40.4 34.27 40.38 34.25C40.36 34.23 40.34 34.2 40.33 34.18C40.32 34.15 40.32 34.12 40.32 34.09L40.32 0.21C40.32 0.18 40.32 0.15 40.33 0.13C40.34 0.1 40.36 0.08 40.38 0.06C40.4 0.04 40.42 0.02 40.45 0.01C40.48 0 40.51 -0.01 40.54 0L50.83 0C50.86 -0.01 50.89 0 50.91 0.01C50.94 0.02 50.96 0.04 50.98 0.06C51 0.08 51.02 0.1 51.03 0.13C51.04 0.15 51.04 0.18 51.04 0.21L51.04 4.93C51.04 4.96 51.04 4.99 51.03 5.01C51.02 5.04 51 5.06 50.98 5.08C50.96 5.1 50.94 5.12 50.91 5.13C50.89 5.14 50.86 5.14 50.83 5.14L45.9 5.14L45.9 14.58L49.97 14.58C50 14.58 50.03 14.58 50.06 14.59C50.08 14.6 50.11 14.62 50.13 14.64C50.15 14.66 50.16 14.68 50.17 14.71C50.18 14.74 50.19 14.76 50.19 14.79L50.19 19.51C50.19 19.54 50.18 19.57 50.17 19.59C50.16 19.62 50.15 19.64 50.13 19.66C50.11 19.69 50.08 19.7 50.06 19.71C50.03 19.72 50 19.73 49.97 19.72L45.9 19.72Z" fill="#FFFFFF" fill-opacity="1.000000" fill-rule="nonzero"/>
	<path id="Vector" d="M68.07 34.09C68.07 34.26 67.99 34.31 67.86 34.31L62.71 34.31C62.58 34.31 62.5 34.26 62.5 34.09L62.07 25.52L59.07 25.52L58.64 34.09C58.64 34.26 58.55 34.31 58.42 34.31L53.28 34.31C53.15 34.31 53.06 34.26 53.06 34.09L54.95 0.21C54.95 0.04 55.04 0 55.16 0L65.97 0C66.1 0 66.19 0.04 66.19 0.21L68.07 34.09ZM59.37 20.37L61.77 20.37L61 5.15L60.14 5.15L59.37 20.37Z" fill="#FFFFFF" fill-opacity="1.000000" fill-rule="nonzero"/>
	<path id="Vector" d="M83.79 34.31L78.56 34.31C78.51 34.3 78.46 34.28 78.41 34.25C78.37 34.22 78.33 34.18 78.31 34.13C77.75 33.28 77.75 31.78 77.75 30.96L77.83 18.87L75.26 18.87L75.26 34.09C75.26 34.12 75.26 34.15 75.25 34.18C75.24 34.2 75.22 34.23 75.2 34.25C75.18 34.27 75.16 34.28 75.13 34.29C75.1 34.3 75.07 34.31 75.05 34.31L69.9 34.31C69.87 34.31 69.84 34.3 69.82 34.29C69.79 34.28 69.76 34.27 69.74 34.25C69.72 34.23 69.71 34.2 69.7 34.18C69.69 34.15 69.68 34.12 69.68 34.09L69.68 0.21C69.68 0.18 69.69 0.15 69.7 0.13C69.71 0.1 69.72 0.08 69.74 0.05C69.76 0.03 69.79 0.02 69.82 0.01C69.84 0 69.87 -0.01 69.9 0L79.12 0C82.55 0 83.41 2.57 83.41 6.86L83.41 12.78C83.41 15.09 82.08 15.78 81.39 15.86L81.39 16.72C82.04 16.8 83.41 17.49 83.41 19.81L83.41 30.96C83.41 31.69 83.41 33.19 83.92 34.05C83.95 34.07 83.96 34.1 83.96 34.13C83.97 34.16 83.96 34.19 83.95 34.22C83.93 34.25 83.91 34.27 83.88 34.29C83.86 34.3 83.83 34.31 83.79 34.31ZM77.83 13.72L77.83 5.14L75.26 5.14L75.26 13.72L77.83 13.72Z" fill="#FFFFFF" fill-opacity="1.000000" fill-rule="nonzero"/>
</svg>
